# xmcd CD database file
#
# Track frame offsets:
#	150
#	29487
#	47707
#	61705
#	80507
#	94642
#	109937
#	123797
#	134525
#	146560
#	167642
#	192960
#	214415
#	226990
#	243620
#	255707
#	269390
#	286992
#	303507
#	323030
#
# Disc length: 4435 seconds
#
# Revision: 0
# Processed by: cddbd v1.5.1PL2 Copyright (c) Steve Scherf et al.
# Submitted via: CDex 1.60beta1
#
DISCID=25115114
DTITLE=Kenny Ball and His Jazzmen - Strictly Jazz
DYEAR=1992
DGENRE=Jazz
TTITLE0=High Society
TTITLE1=Ostrich Walk
TTITLE2=Steamboat Stomp
TTITLE3=Tin Roof Blues
TTITLE4=Temptation Rag
TTITLE5=That's a Plenty
TTITLE6=Black and Tan Fantasy
TTITLE7=Someday You'll be Sorry
TTITLE8=Casablanca
TTITLE9=Riverside Blues
TTITLE10=Mama Don't Allow
TTITLE11=Memphis Blues
TTITLE12=1919 Rag
TTITLE13=Your Feet's Too Big
TTITLE14=Dark Eyes
TTITLE15=Fleet St. Lightening
TTITLE16=Savoy Blues
TTITLE17=Ole Miss Rag
TTITLE18=Jazz Me Blues
TTITLE19=Heartaches
EXTD=YEAR: 1992
EXTT0=
EXTT1=
EXTT2=
EXTT3=
EXTT4=
EXTT5=
EXTT6=
EXTT7=
EXTT8=
EXTT9=
EXTT10=
EXTT11=
EXTT12=
EXTT13=
EXTT14=
EXTT15=
EXTT16=
EXTT17=
EXTT18=
EXTT19=
PLAYORDER=
